<svg xmlns="http://www.w3.org/2000/svg" width="47" height="47" fill="none"><path fill="#91D301" d="M28.769 8.894a11.12 11.12 0 0 1 8.783 8.783M28.769 0a20.01 20.01 0 0 1 17.678 17.656M44.223 35.4v6.671a4.446 4.446 0 0 1-4.847 4.447 44 44 0 0 1-19.19-6.826A43.4 43.4 0 0 1 6.844 26.35 44 44 0 0 1 .018 7.071a4.447 4.447 0 0 1 4.425-4.847h6.671a4.45 4.45 0 0 1 4.447 3.825 28.6 28.6 0 0 0 1.556 6.251 4.45 4.45 0 0 1-1 4.692l-2.824 2.824a35.6 35.6 0 0 0 13.339 13.338l2.824-2.824a4.45 4.45 0 0 1 4.692-1 28.6 28.6 0 0 0 6.248 1.557 4.447 4.447 0 0 1 3.827 4.513"/></svg>