<svg width="17" height="15" viewBox="0 0 17 15" fill="none" xmlns="http://www.w3.org/2000/svg">
<path d="M17.005 5.225C17.0088 4.94821 16.9397 4.67529 16.8047 4.43361C16.6698 4.19193 16.4736 3.98998 16.236 3.848L8.502 0L0.769 3.849C0.537502 3.99738 0.346198 4.2006 0.212054 4.44063C0.0779099 4.68065 0.00507198 4.95008 0 5.225V12.956C0.001055 13.3852 0.171935 13.7964 0.475299 14.1C0.778664 14.4035 1.18985 14.5747 1.619 14.576H15.385C15.8142 14.5747 16.2253 14.4035 16.5287 14.1C16.8321 13.7964 17.0029 13.3852 17.004 12.956L17.005 5.225ZM8.505 9.109L2.005 4.858L8.505 1.619L15.005 4.858L8.505 9.109Z" fill="white"/>
</svg>
