<svg xmlns="http://www.w3.org/2000/svg" width="14" height="14" fill="none"><path fill="#fff" d="M6.919 0a6.926 6.926 0 1 0 .014 13.852A6.926 6.926 0 0 0 6.919 0m4.8 4.156H9.676A10.8 10.8 0 0 0 8.72 1.69a5.56 5.56 0 0 1 2.999 2.466M6.926 1.413a9.8 9.8 0 0 1 1.323 2.743H5.6a9.8 9.8 0 0 1 1.326-2.743m-5.361 6.9a5.4 5.4 0 0 1 0-2.771h2.341q-.092.69-.1 1.385.008.696.1 1.385zM2.133 9.7h2.044c.217.858.538 1.686.956 2.466a5.53 5.53 0 0 1-3-2.466m2.044-5.544H2.133a5.53 5.53 0 0 1 3-2.466 10.8 10.8 0 0 0-.956 2.466m2.75 8.284A9.8 9.8 0 0 1 5.6 9.7h2.646a9.8 9.8 0 0 1-1.32 2.74zm1.621-4.128H5.306a10 10 0 0 1-.111-1.385 10 10 0 0 1 .111-1.385h3.242q.104.689.111 1.385-.009.696-.112 1.385zm.173 3.851c.418-.78.74-1.608.956-2.466h2.043a5.56 5.56 0 0 1-2.999 2.466m1.226-3.851q.092-.69.1-1.385a11 11 0 0 0-.1-1.385h2.341c.24.908.24 1.863 0 2.771z"/></svg>