<svg xmlns="http://www.w3.org/2000/svg" width="44" height="39" fill="none"><path fill="#fff" d="M22.31 23.827c-6.627 6.63-7.795 7.868-7.833 7.82.174-.162-.181.626 4.052-9.84.38.2-.035-.02 3.778 2.02zM9.77 30.156c-.423-.091.314-.564-9.254 7.264a.61.61 0 0 0 .77.944l8.745-7.154a.6.6 0 0 0-.261-1.054m.662-5.586c-.3 0 .3-.39-7.528 5.693a.61.61 0 1 0 .747.963l7.156-5.564a.61.61 0 0 0-.375-1.092m3.1 6.833L42.737 2.415c-9.01 7.14-10.873 8.542-23.4 18.452l13.309 7.14c6-15.215 8.01-20.263 10.094-25.592zM17.8 20.546c-.078.076-.03.02-.125.179-.537 1.333.1-.248-4.143 10.25a.6.6 0 0 0 0 .425c-.146-.387-.691-2.943-2.47-10.64l-10.5-.8a.609.609 0 0 1-.195-1.165C50.803-2.995 42.927.414 43.883 0c.16-.158-26.02 20.484-26.074 20.543z"/></svg>