<svg xmlns="http://www.w3.org/2000/svg" width="18" height="18" fill="none"><path fill="#fff" d="M15.228 0H1.827A1.827 1.827 0 0 0 0 1.827v13.4a1.827 1.827 0 0 0 1.827 1.827h13.4a1.83 1.83 0 0 0 1.827-1.827v-13.4A1.827 1.827 0 0 0 15.228 0m-.624 11.7-.571 2.475a.57.57 0 0 1-.556.443A11.04 11.04 0 0 1 2.436 3.579a.6.6 0 0 1 .443-.556l2.475-.573a1 1 0 0 1 .128-.015.62.62 0 0 1 .525.346L7.149 5.45a.7.7 0 0 1 .046.225.65.65 0 0 1-.209.442L5.543 7.295a8.83 8.83 0 0 0 4.217 4.217l1.18-1.442a.65.65 0 0 1 .442-.209.7.7 0 0 1 .225.046l2.666 1.143a.62.62 0 0 1 .346.525.7.7 0 0 1-.015.128z"/></svg>