<svg xmlns="http://www.w3.org/2000/svg" width="31" height="10" fill="none"><path fill="#fff" d="M21.724 3.183H.83q-.166 0-.318.041a1 1 0 0 0-.27.119.6.6 0 0 0-.18.177.4.4 0 0 0-.062.208v2.544c0 .144.087.283.243.385s.367.16.587.16h20.89v2.09c0 .216.097.428.28.607.182.18.442.32.746.403s.639.104.961.062a2.04 2.04 0 0 0 .851-.3l5.956-3.91c.311-.204.486-.48.486-.77 0-.289-.175-.566-.486-.77L24.558.318a2.04 2.04 0 0 0-.85-.298 2.5 2.5 0 0 0-.96.062 1.7 1.7 0 0 0-.744.402c-.183.179-.28.39-.28.605z"/></svg>